<svg width="354" height="618" viewBox="0 0 354 618" fill="none" xmlns="http://www.w3.org/2000/svg">
<g clip-path="url(#clip0_6_34)">
<path fill-rule="evenodd" clip-rule="evenodd" d="M-294.748 21.2437C-432.178 -7.80839 -573.487 -56.2662 -718.159 32.2427C-862.832 120.752 -953.785 198.286 -895.05 298.604C-836.315 398.924 -596.561 336.438 -526.901 426.1C-457.239 515.762 -610.3 597.135 -544.312 676.933C-478.323 756.731 -427.583 807.874 -215.519 757.137C-3.45288 706.399 -23.0064 577.299 138.26 501.7C299.526 426.1 474.004 312.924 234.559 110.978C-4.88707 -90.9686 -157.319 50.2983 -294.746 21.245L-294.748 21.2437Z" stroke="#9E96C6"/>
<path fill-rule="evenodd" clip-rule="evenodd" d="M-277.563 67.7458C-389.36 44.1539 -504.314 4.80544 -622.003 76.6761C-739.691 148.548 -813.681 211.507 -765.902 292.968C-718.121 374.428 -523.085 323.69 -466.416 396.495C-409.747 469.302 -534.26 535.38 -480.58 600.177C-426.899 664.975 -385.624 706.504 -213.112 665.304C-40.5993 624.104 -56.5039 519.272 74.6812 457.884C205.87 396.496 347.806 304.596 153.021 140.611C-41.7648 -23.3737 -165.766 91.3377 -277.563 67.7458Z" stroke="#9E96C6"/>
<path fill-rule="evenodd" clip-rule="evenodd" d="M-245.418 98.6066C-336.119 79.359 -429.378 47.2512 -524.859 105.894C-620.337 164.536 -680.364 215.908 -641.601 282.374C-602.837 348.841 -444.608 307.441 -398.633 366.847C-352.658 426.253 -453.676 480.169 -410.124 533.04C-366.573 585.909 -333.087 619.795 -193.13 586.178C-53.1726 552.562 -66.0764 467.025 40.3542 416.937C146.785 366.847 261.936 291.862 103.909 158.061C-54.1185 24.259 -154.72 117.857 -245.418 98.6066Z" stroke="#9E96C6"/>
<path fill-rule="evenodd" clip-rule="evenodd" d="M-211.826 136.333C-284.977 120.888 -360.194 95.1291 -437.201 142.179C-514.208 189.229 -562.62 230.445 -531.356 283.774C-500.093 337.102 -372.477 303.886 -335.398 351.549C-298.319 399.211 -379.789 442.468 -344.665 484.888C-309.541 527.308 -282.534 554.496 -169.655 527.523C-56.7762 500.552 -67.1838 431.923 18.6548 391.736C104.493 351.549 197.365 291.386 69.914 184.034C-57.5387 76.681 -138.675 151.777 -211.826 136.333Z" stroke="#9E96C6"/>
<path fill-rule="evenodd" clip-rule="evenodd" d="M-203.172 160.687C-262.917 148.064 -324.348 127.008 -387.24 165.466C-450.13 203.925 -489.671 237.615 -464.136 281.205C-438.602 324.795 -334.378 297.644 -304.095 336.603C-273.811 375.561 -340.35 410.921 -311.665 445.594C-282.977 480.267 -260.92 502.489 -168.731 480.442C-76.5421 458.397 -85.0417 402.301 -14.9352 369.452C55.1695 336.603 131.018 287.426 26.9275 199.678C-77.1648 111.929 -143.43 173.311 -203.172 160.687Z" stroke="#9E96C6"/>
<path fill-rule="evenodd" clip-rule="evenodd" d="M-186.576 178.295C-235.08 168.045 -284.954 150.945 -336.015 182.176C-387.076 213.407 -419.178 240.764 -398.446 276.163C-377.716 311.56 -293.099 289.512 -268.512 321.149C-243.924 352.785 -297.946 381.499 -274.657 409.656C-251.365 437.813 -233.459 455.858 -158.612 437.956C-83.7655 420.054 -90.6658 374.501 -33.7499 347.825C23.1679 321.149 84.7493 281.215 0.239554 209.958C-84.272 138.702 -138.071 188.546 -186.576 178.295Z" stroke="#9E96C6"/>
</g>
<defs>
<clipPath id="clip0_6_34">
<rect width="354" height="618" fill="white"/>
</clipPath>
</defs>
</svg>
