<svg width="423" height="457" viewBox="0 0 423 457" fill="none" xmlns="http://www.w3.org/2000/svg">
<g clip-path="url(#clip0_6_26)">
<path fill-rule="evenodd" clip-rule="evenodd" d="M331.453 -19.016C258.007 -37.2752 182.488 -67.7308 105.172 -12.1032C27.854 43.5244 -20.7522 92.2547 10.6371 155.304C42.0264 218.355 170.157 179.083 207.384 235.435C244.613 291.787 162.814 342.93 198.079 393.083C233.346 443.236 260.462 475.379 373.794 443.491C487.127 411.602 476.677 330.463 562.862 282.949C649.046 235.435 742.291 164.304 614.326 37.3815C486.361 -89.5412 404.897 -0.755252 331.454 -19.0152L331.453 -19.016Z" stroke="#96A9C6"/>
<path fill-rule="evenodd" clip-rule="evenodd" d="M340.636 10.2104C280.89 -4.617 219.456 -29.3474 156.56 15.8231C93.6645 60.9945 54.1227 100.564 79.657 151.762C105.192 202.96 209.424 171.071 239.709 216.828C269.994 262.588 203.451 304.118 232.14 344.842C260.828 385.568 282.886 411.668 375.081 385.774C467.275 359.88 458.776 293.994 528.884 255.411C598.994 216.829 674.848 159.07 570.75 56.006C466.653 -47.0579 400.383 25.0379 340.636 10.2104Z" stroke="#96A9C6"/>
<path fill-rule="evenodd" clip-rule="evenodd" d="M357.815 29.6064C309.343 17.5093 259.503 -2.67033 208.476 34.1864C157.45 71.0431 125.37 103.33 146.086 145.104C166.803 186.878 251.364 160.859 275.934 198.195C300.504 235.531 246.518 269.417 269.793 302.647C293.067 335.875 310.963 357.172 385.76 336.044C460.556 314.916 453.66 261.157 510.539 229.676C567.418 198.195 628.957 151.067 544.504 66.9732C460.05 -17.1209 406.287 41.7049 357.815 29.6064Z" stroke="#96A9C6"/>
<path fill-rule="evenodd" clip-rule="evenodd" d="M375.768 53.3172C336.674 43.61 296.477 27.4208 255.322 56.9917C214.168 86.5626 188.295 112.467 205.004 145.983C221.711 179.5 289.912 158.624 309.728 188.58C329.544 218.535 286.004 245.723 304.775 272.384C323.547 299.044 337.98 316.131 398.305 299.179C458.63 282.228 453.068 239.095 498.942 213.837C544.816 188.58 594.449 150.768 526.336 83.2973C458.223 15.8262 414.861 63.0236 375.768 53.3172Z" stroke="#96A9C6"/>
<path fill-rule="evenodd" clip-rule="evenodd" d="M380.393 68.624C348.464 60.6901 315.634 47.4563 282.023 71.6272C248.413 95.7989 227.281 116.973 240.928 144.369C254.573 171.765 310.273 154.701 326.457 179.186C342.642 203.672 307.082 225.895 322.411 247.687C337.743 269.479 349.531 283.446 398.799 269.589C448.067 255.733 443.524 220.477 480.991 199.832C518.456 179.186 558.992 148.279 503.363 93.1293C447.734 37.9795 412.32 76.5579 380.393 68.624Z" stroke="#96A9C6"/>
<path fill-rule="evenodd" clip-rule="evenodd" d="M389.262 79.6906C363.34 73.2479 336.687 62.5011 309.398 82.1297C282.11 101.758 264.954 118.952 276.034 141.2C287.112 163.447 332.333 149.59 345.474 169.474C358.614 189.357 329.743 207.403 342.19 225.1C354.637 242.796 364.207 254.138 404.207 242.887C444.206 231.635 440.519 203.005 470.936 186.239C501.354 169.474 534.265 144.375 489.101 99.5905C443.936 54.8061 415.184 86.1333 389.262 79.6906Z" stroke="#96A9C6"/>
</g>
<defs>
<clipPath id="clip0_6_26">
<rect width="423" height="457" fill="white"/>
</clipPath>
</defs>
</svg>
