
        <svg xmlns="http://www.w3.org/2000/svg" xmlns:xlink="http://www.w3.org/1999/xlink" version="1.1" width="3187.5" 
        height="1292.6530757518456" viewBox="0 0 3187.5 1292.6530757518456">
			<rect fill="#abedd8" width="3187.5" height="1292.6530757518456"/>
			<g transform="scale(9.375) translate(10, 10)">
				<defs id="SvgjsDefs2689"><linearGradient id="SvgjsLinearGradient2694"><stop id="SvgjsStop2695" stop-color="#2d388a" offset="0"></stop><stop id="SvgjsStop2696" stop-color="#00aeef" offset="1"></stop></linearGradient></defs><g id="SvgjsG2690" featureKey="symbolFeature-0" transform="matrix(0.23772734745236057,0,0,0.23772734745236057,-10.861761271771663,-1.2903129152955586)" fill="url(#SvgjsLinearGradient2694)"><title xmlns="http://www.w3.org/2000/svg">brain</title><g xmlns="http://www.w3.org/2000/svg" data-name="Layer 31"><path d="M435,218.45c2.55-8.72,6.83-29.58-3.37-48-7.88-14.22-22.5-23.7-43.49-28.2a65.09,65.09,0,0,0-28-37.2C343,94.14,321.6,91.53,301.47,97.86c-9.5,3-17.2,6.49-23.1,10.44h0a38.18,38.18,0,0,0-3.69,2.7h0c-8.88-8.9-34.54-28.92-77.71-18.52-1.26.25-29.9,6.23-44.86,32.06-7.55-.89-25.55-1.61-40.09,8.8-10.08,7.21-16.43,18.23-18.92,32.79-11.68,2.76-47.41,15-47.41,60.84,0,.51.85,50,50.94,56.53a46.36,46.36,0,0,0,12.59,26.58c12,12.55,31,18.91,56.43,18.91h59.92l50.93,82.25a23.36,23.36,0,0,0,19.94,11.2H316a11.72,11.72,0,0,0,10-5.61,12,12,0,0,0,.52-11.76l-12.86-25.66c7.68-3,16.6-10.26,18.33-24.22,8.92,2.4,25.74,5.2,40.4-2.17,10.09-5.07,17.29-14,21.46-26.46,10.2,1.45,35.85,3.25,53.92-11.27,12.32-9.91,18.57-25.28,18.57-45.8C466.29,268,465.06,235,435,218.45Zm6.83,89.36c-18.94,15.27-50,8.72-50.32,8.66l-3.76-.83c-5-1.46-15-5.66-23.69-17.26l-7.64,5.73c9.84,13.15,21.32,18.42,28,20.49-3.38,9.44-8.83,16.12-16.26,19.87-16.17,8.16-37.09.51-38.76-.12-.8-.41-8.15-4.48-7.47-17.47l-9.54-.5c-.76,14.7,6.18,22,10.31,25-.47,13.16-8.66,17.86-13.38,19.46L297.42,348l-8.48,4.4,13.58,26.13L318,409.35a2.48,2.48,0,0,1-.1,2.46,2.19,2.19,0,0,1-1.88,1.08H296.42a13.87,13.87,0,0,1-11.82-6.68L236.78,329h31.64v-9.55H165.63c-22.61,0-39.23-5.33-49.4-15.83a35.81,35.81,0,0,1-10.32-24.24l.14-3.34a21.47,21.47,0,0,1,5.61-12c5.58-5.92,14.85-8.93,27.53-8.93h46.56c.95,4.23,1.86,11.68-1.38,17.83-2.5,4.76-7.24,8.06-14.08,9.81l2.36,9.26c9.6-2.46,16.4-7.4,20.21-14.68,4.35-8.33,3.57-17.65,2.4-23.4,12.93-2.72,34.11-11.6,37.33-40.61,9.07,1.49,27.57,3,44.7-4.51a81.65,81.65,0,0,0,24.46,26.9c-1.26,8.9-8.62,38.73-50.57,38.73V284c43.83,0,55.9-29.15,59.17-43,11.41,6,26,10.36,44.62,10.36q3.81,0,7.84-.25l-.6-9.53c-50.6,3.16-71-26.66-76.6-37.25,13.83-9.14,22.54-24,25.88-44.09l-9.43-1.56c-2.91,17.56-10.32,30.31-22,37.91-21.31,13.82-50.31,6.47-50.59,6.4l-5.83-1.54-.17,6c-1.08,38.09-36.54,38.1-38.13,38.14H139.19c-1.83,0-3.6.07-5.33.18h-.18c-23.58,0-27.66-28.49-27.83-29.71l-9.47,1.24c1.22,9.41,6.67,24.74,19,32.76a33.36,33.36,0,0,0-10.8,7.62,30.87,30.87,0,0,0-7.82,16.26c-40.62-6-41.5-45.22-41.51-46.92,0-46,40.94-51.83,42.67-52.05l3.68-.47,0-.1c6.54-.78,21.47-1.43,32.21,6.67,7.44,5.6,11.64,14.64,12.47,26.84l9.53-.65c-.59-8.62-2.67-16-6.13-22.13,9.26-1.17,20.32-6.32,26.2-20.49l-8.82-3.66c-6.53,15.74-20.77,15.18-24.92,14.66-.83-.76-1.67-1.52-2.58-2.2-12.09-9.11-27.6-9.5-36.4-8.8,2.37-10.37,7.15-18.25,14.34-23.42,8.57-6.15,19-7.49,26.51-7.49a54.69,54.69,0,0,1,9.71.79l3.58.74,1.65-3.26c12.24-24.2,39.6-30,40.05-30.11,38.71-9.33,61.26,8.31,68.77,15.79-7.92,8.86-17.26,24.25-16.54,47.18l9.55-.3c-.6-18.92,6.68-31.78,13.14-39.41l.12.16,3.86-4.2c4.83-5.28,14-10.13,26.43-14,17.44-5.49,35.89-3.26,50.62,6.12,20.82,13.26,24.47,33.79,24.5,34v0h0c.07.39,6.14,38.32-18.72,48.29l3.56,8.87c24.72-9.92,26.08-38.57,25.3-51.86,16.26,4.11,27.56,11.7,33.63,22.6,8,14.44,5.06,31.47,2.93,39.48-6.4-2.37-17.74-5.88-26.86-5l1,9.5c10.48-1.07,26.31,5.9,26.89,6.15,28.32,13.25,29.58,43.3,29.62,44.43C456.78,287,451.74,299.81,441.81,307.81Z"></path></g></g><g id="SvgjsG2691" featureKey="nameFeature-0" transform="matrix(2.865331266764457,0,0,2.865331266764457,120.45845333400919,-38.62466416434032)" fill="#111111"><path d="M2 38.48 c0.08 0 0.20668 -0.09324 0.38 -0.27992 s0.38664 -0.58 0.63996 -1.18 s0.56 -1.44 0.92 -2.52 s0.76668 -2.5133 1.22 -4.3 c0.10668 -0.37332 0.26668 -0.48664 0.48 -0.33996 s0.37332 0.40668 0.48 0.78 c0.08 0.13332 0.24 0.46 0.48 0.98 s0.50668 1.08 0.8 1.68 s0.59332 1.1467 0.9 1.64 s0.56668 0.75332 0.78 0.78 c0.26668 0.05332 0.5 -0.21336 0.7 -0.80004 s0.36 -1.28 0.48 -2.08 s0.21332 -1.6133 0.28 -2.44 s0.1 -1.4534 0.1 -1.88 c0.05332 -0.08 0.17332 -0.22668 0.36 -0.44 s0.37336 -0.38 0.56004 -0.5 s0.32 -0.13332 0.4 -0.04 s0.05332 0.39332 -0.08 0.9 c0 1.3067 -0.1 2.52 -0.3 3.64 s-0.44 2.0933 -0.72 2.92 s-0.58 1.4667 -0.9 1.92 s-0.61332 0.68 -0.88 0.68 c-0.32 0.02668 -0.66 -0.18 -1.02 -0.62 s-0.7 -0.94 -1.02 -1.5 s-0.60668 -1.1133 -0.86 -1.66 s-0.44664 -0.91336 -0.57996 -1.1 c-0.16 0.74668 -0.4 1.6067 -0.72 2.58 s-0.66668 1.8866 -1.04 2.74 s-0.76 1.5733 -1.16 2.16 s-0.77332 0.85336 -1.12 0.80004 c-0.32 -0.24 -0.58 -0.7 -0.78 -1.38 s-0.36 -1.48 -0.48 -2.4 s-0.21332 -1.8867 -0.28 -2.9 s-0.11336 -1.9933 -0.14004 -2.94 s-0.04 -1.7867 -0.04 -2.52 l0 -1.58 c0 -0.18668 0.06 -0.34 0.18 -0.46 s0.26668 -0.22 0.44 -0.3 s0.34 -0.13332 0.5 -0.16 s0.28 -0.04 0.36 -0.04 c0.10668 -0.02668 0.16 0.07332 0.16 0.3 s-0.02 0.60668 -0.06 1.14 s-0.08 1.24 -0.12 2.12 s-0.03332 1.9467 0.02 3.2 c0 0.37332 0.01332 0.87332 0.04 1.5 s0.06 1.2334 0.1 1.82 s0.1 1.0867 0.18 1.5 s0.2 0.60664 0.36 0.57996 z M15.680000000000001 22.4 c0.26668 -0.05332 0.42664 0.10672 0.47996 0.48004 s0 0.65332 -0.16 0.84 c-0.29332 0.24 -0.48 0.44668 -0.56 0.62 s-0.26668 0.28664 -0.56 0.33996 c-0.16 -0.02668 -0.3 -0.033359 -0.42 -0.020039 s-0.22 -0.20668 -0.3 -0.66 c0.10668 -0.29332 0.27336 -0.58664 0.50004 -0.87996 s0.56668 -0.53332 1.02 -0.72 z M15.8 27.6 c0.13332 1.28 0.22676 2.6867 0.28008 4.22 s0.14664 3.14 0.27996 4.82 c0.10668 0.85332 0.21336 1.52 0.32004 2 s0.18668 0.93332 0.24 1.36 c-0.42668 0.08 -0.76 0.07332 -1 -0.02 s-0.46668 -0.20664 -0.68 -0.33996 c-0.05332 -0.42668 -0.11332 -1.1334 -0.18 -2.12 s-0.13336 -2.06 -0.20004 -3.22 s-0.13336 -2.2867 -0.20004 -3.38 s-0.12668 -1.96 -0.18 -2.6 c0.10668 -0.05332 0.19336 -0.13332 0.26004 -0.24 s0.14 -0.2 0.22 -0.28 s0.18668 -0.14668 0.32 -0.2 s0.30664 -0.05332 0.51996 0 z M23.28 27.4 c0.66668 0.10668 1.2202 0.25332 1.6602 0.44 s0.78668 0.39336 1.04 0.62004 s0.45332 0.46 0.6 0.7 s0.28668 0.46668 0.42 0.68 c-0.02668 0.10668 -0.15336 0.09336 -0.38004 -0.039961 s-0.44668 -0.26664 -0.66 -0.39996 c-0.58668 -0.37332 -1.2934 -0.6 -2.12 -0.68 s-1.5934 -0.03332 -2.3 0.14 s-1.2734 0.47332 -1.7 0.9 s-0.53336 0.94668 -0.32004 1.56 s0.59332 1.1466 1.14 1.6 s1.1534 0.86 1.82 1.22 s1.3334 0.68668 2 0.98 s1.2134 0.58664 1.64 0.87996 c0.53332 -0.29332 0.98664 -0.54 1.36 -0.74 s0.70664 -0.38668 0.99996 -0.56 s0.59332 -0.33332 0.9 -0.48 s0.66 -0.31336 1.06 -0.50004 c0.05332 -0.02668 0.1 -0.04 0.14 -0.04 s0.04 0.03332 0 0.1 s-0.14668 0.17336 -0.32 0.32004 s-0.44664 0.35336 -0.81996 0.62004 c-0.18668 0.13332 -0.53336 0.36 -1.04 0.68 s-1.0534 0.66668 -1.64 1.04 c0.32 0.29332 0.57332 0.6 0.76 0.92 c0.16 0.29332 0.27332 0.60664 0.34 0.93996 s0.0066796 0.67332 -0.18 1.02 c-0.53332 0.85332 -1.1333 1.52 -1.8 2 s-1.28 0.81332 -1.84 1 c-0.37332 0.13332 -0.78664 0.14664 -1.24 0.039961 s-0.81332 -0.32 -1.08 -0.64 c-0.29332 -0.42668 -0.36664 -0.86 -0.21996 -1.3 s0.39336 -0.86668 0.74004 -1.28 s0.74668 -0.80664 1.2 -1.18 s0.85332 -0.70664 1.2 -0.99996 c-0.24 -0.26668 -0.70668 -0.59336 -1.4 -0.98004 s-1.4066 -0.81336 -2.14 -1.28 s-1.3933 -0.96668 -1.98 -1.5 s-0.90668 -1.0666 -0.96 -1.6 c-0.10668 -0.58668 -0.033359 -1.1534 0.21996 -1.7 s0.62664 -1.0267 1.12 -1.44 s1.0666 -0.72 1.72 -0.92 s1.34 -0.24668 2.06 -0.14 z M22.92 41.12 c0.29332 0.13332 0.62668 0.13328 1 -0.000039062 s0.72664 -0.32664 1.06 -0.57996 s0.62664 -0.53332 0.87996 -0.84 s0.42 -0.58 0.5 -0.82 c0.08 -0.21332 0.0066796 -0.44664 -0.22 -0.69996 s-0.46 -0.46 -0.7 -0.62 c-0.29332 0.21332 -0.62664 0.48664 -0.99996 0.81996 s-0.7 0.67332 -0.98 1.02 s-0.48668 0.68 -0.62 1 s-0.10664 0.56 0.08004 0.72 z M33.120000000000005 28.68 c0.08 -0.02668 0.30668 -0.10016 0.68 -0.22016 s0.68 -0.14 0.92 -0.06 c0.77332 -0.02668 1.3666 0.17332 1.78 0.6 s0.44664 1.2534 0.09996 2.48 c-0.50668 1.36 -1.18 2.4933 -2.02 3.4 s-1.8333 1.7734 -2.98 2.6 c0.26668 0.69332 0.66668 1.08 1.2 1.16 s1.0933 -0.0066796 1.68 -0.26 s1.16 -0.59332 1.72 -1.02 s1.0133 -0.8 1.36 -1.12 c0.56 -0.48 1.0067 -0.88668 1.34 -1.22 s0.68664 -0.74 1.06 -1.22 c0.08 -0.05332 0.12668 -0.04664 0.14 0.020039 s0.0066408 0.16668 -0.020039 0.3 s-0.06668 0.32 -0.12 0.56 c-0.08 0.18668 -0.16 0.35336 -0.24 0.50004 s-0.19332 0.30668 -0.34 0.48 s-0.34 0.38 -0.58 0.62 s-0.53332 0.56 -0.88 0.96 c-0.4 0.37332 -0.78668 0.74 -1.16 1.1 s-0.76664 0.67332 -1.18 0.94 s-0.86664 0.45336 -1.36 0.56004 s-1.06 0.10668 -1.7 0 c-0.53332 -0.18668 -0.96 -0.38668 -1.28 -0.6 s-0.56668 -0.43332 -0.74 -0.66 s-0.3 -0.43336 -0.38 -0.62004 s-0.13332 -0.34668 -0.16 -0.48 c-0.13332 -0.53332 -0.18664 -1.2533 -0.15996 -2.16 s0.29336 -2.08 0.80004 -3.52 c0.34668 -0.74668 0.72 -1.38 1.12 -1.9 s0.86668 -0.92668 1.4 -1.22 z M31.360000000000003 35.76 c0.34668 -0.18668 0.75312 -0.44672 1.2198 -0.78004 s0.90668 -0.72 1.32 -1.16 s0.77332 -0.92668 1.08 -1.46 s0.47336 -1.0933 0.50004 -1.68 c0.08 -0.4 0.06668 -0.68 -0.04 -0.84 c-0.05332 -0.08 -0.10664 -0.12 -0.15996 -0.12 c-0.45332 -0.21332 -0.90664 -0.14664 -1.36 0.20004 s-0.86664 0.84 -1.24 1.48 s-0.68664 1.3533 -0.93996 2.14 s-0.38 1.5267 -0.38 2.22 z M41.32 13.48 c0.16 0.02668 0.28676 0.15328 0.38008 0.37996 s0.16 0.50668 0.2 0.84 s0.07332 0.68664 0.1 1.06 s0.05336 0.73332 0.08004 1.08 c0.05332 0.42668 0.13332 1.24 0.24 2.44 s0.23336 2.58 0.38004 4.14 s0.31336 3.18 0.50004 4.86 s0.37336 3.2067 0.56004 4.58 s0.37336 2.4933 0.56004 3.36 s0.36 1.2467 0.52 1.14 c0.56 0.18668 1.1067 -0.03332 1.64 -0.66 s1.0266 -1.4867 1.48 -2.58 s0.86664 -2.3533 1.24 -3.78 s0.67332 -2.86 0.9 -4.3 s0.38668 -2.8067 0.48 -4.1 s0.08664 -2.3666 -0.020039 -3.22 c-0.02668 -0.18668 0.04664 -0.32 0.21996 -0.4 s0.36664 -0.12 0.57996 -0.12 s0.42664 0.04 0.63996 0.12 s0.34664 0.2 0.39996 0.36 c0 0.90668 -0.02668 1.9734 -0.08 3.2 s-0.09332 2.52 -0.12 3.88 s-0.04 2.72 -0.04 4.08 s0.04668 2.6067 0.14 3.74 s0.25332 2.1133 0.48 2.94 s0.55336 1.3734 0.98004 1.64 c0.72 0.21332 1.3733 0.2 1.96 -0.04 s1.1 -0.57332 1.54 -1 s0.80668 -0.87336 1.1 -1.34 s0.50664 -0.80668 0.63996 -1.02 c0.10668 -0.21332 0.18668 -0.22664 0.24 -0.039961 s0.01332 0.48 -0.12 0.88 c-0.34668 0.61332 -0.76668 1.2533 -1.26 1.92 s-1.0266 1.22 -1.6 1.66 s-1.1733 0.70668 -1.8 0.8 s-1.26 -0.12668 -1.9 -0.66 c-0.29332 -0.18668 -0.56 -0.6 -0.8 -1.24 s-0.44 -1.3733 -0.6 -2.2 s-0.27332 -1.6934 -0.34 -2.6 s-0.07336 -1.72 -0.020039 -2.44 c-0.8 2.2933 -1.4933 4.0268 -2.08 5.2 s-1.0934 2 -1.52 2.48 s-0.78 0.73332 -1.06 0.76 s-0.51332 0.04 -0.7 0.04 c-0.29332 0.02668 -0.56 0.04 -0.8 0.04 s-0.46668 -0.06668 -0.68 -0.2 s-0.40664 -0.35332 -0.57996 -0.66 s-0.34 -0.75336 -0.5 -1.34 c-0.45332 -3.7333 -0.86 -7.5468 -1.22 -11.44 s-0.80668 -7.7732 -1.34 -11.64 c0 -0.13332 0.04 -0.26664 0.12 -0.39996 s0.37332 -0.2 0.88 -0.2 z M68.36 29.04 c0.10668 0.05332 0.23332 0.12 0.38 0.2 s0.28668 0.2 0.42 0.36 s0.24664 0.36668 0.33996 0.62 s0.14 0.58 0.14 0.98 c-0.05332 1.3867 -0.4 2.64 -1.04 3.76 s-1.4067 2.0667 -2.3 2.84 s-1.82 1.3466 -2.78 1.72 s-1.7733 0.50664 -2.44 0.39996 c0 2.5867 0.02 4.7468 0.06 6.48 s0.06668 3.1533 0.08 4.26 s0.01332 1.94 0 2.5 s-0.05332 0.94668 -0.12 1.16 s-0.18668 0.31332 -0.36 0.3 s-0.39332 -0.04664 -0.66 -0.09996 c-0.05332 0.08 -0.09332 0.01332 -0.12 -0.2 c-0.02668 -0.18668 -0.04668 -0.52 -0.06 -1 s-0.02 -1.2267 -0.02 -2.24 c0 -0.08 -0.0066796 -0.54 -0.02 -1.38 s-0.026641 -1.8933 -0.039961 -3.16 s-0.04 -2.66 -0.08 -4.18 s-0.08668 -3 -0.14 -4.44 s-0.11332 -2.7733 -0.18 -4 s-0.15336 -2.1734 -0.26004 -2.84 c0 -0.05332 -0.01332 -0.18664 -0.04 -0.39996 l-0.1 -0.8 l-0.16 -1.04 l-0.22 -1.08 c0.45332 -0.02668 0.76 0.02 0.92 0.14 s0.32 0.26 0.48 0.42 c0.16 0.50668 0.31332 1.32 0.46 2.44 s0.31336 2.64 0.50004 4.56 c0.05332 -0.26668 0.19332 -0.64 0.42 -1.12 s0.52668 -0.99332 0.9 -1.54 s0.8 -1.0867 1.28 -1.62 s0.98668 -0.98664 1.52 -1.36 s1.0733 -0.63332 1.62 -0.78 s1.0867 -0.1 1.62 0.14 z M63.32 38.04 c1.2267 -0.50668 2.1934 -1.1599 2.9001 -1.9599 s1.22 -1.5933 1.54 -2.38 s0.48 -1.4867 0.48 -2.1 s-0.12 -1 -0.36 -1.16 c-0.53332 -0.34668 -1.04 -0.38668 -1.52 -0.12 s-0.94668 0.58668 -1.4 0.96 c-0.24 0.21332 -0.57332 0.59332 -1 1.14 s-0.85336 1.1534 -1.28 1.82 s-0.79336 1.34 -1.1 2.02 s-0.46 1.2733 -0.46 1.78 c0.10668 0.13332 0.26668 0.22664 0.48 0.27996 c0.16 0.05332 0.38 0.06664 0.66 0.039961 s0.63332 -0.13336 1.06 -0.32004 z"></path></g>
			</g>
		</svg>
	